{"glyphs":{":":{"x_min":0,"x_max":277,"ha":277,"o":"m 114 388 l 201 468 q 212 478 218 478 q 222 478 228 468 l 272 388 q 281 372 264 357 l 177 277 q 166 267 161 267 q 156 267 150 277 l 106 357 q 101 367 102 372 q 104 378 114 388 z m 38 107 l 126 188 q 137 198 142 198 q 148 198 153 188 l 197 107 q 205 92 188 77 l 102 -4 q 91 -14 85 -14 q 80 -14 74 -4 l 31 77 q 26 86 28 92 q 29 98 38 107 z"},"$":{"x_min":0,"x_max":478,"ha":478,"o":"m 299 361 l 319 354 q 402 327 430 285 q 459 242 442 176 q 420 98 357 49 q 294 1 200 -10 l 172 -114 l 123 -114 l 151 -12 q 120 -9 107 -6 q 38 8 8 43 q -22 78 -8 128 q 1 162 27 184 q 53 206 84 206 q 113 206 128 188 q 142 171 136 145 q 131 128 118 111 q 106 94 90 83 q 82 78 82 74 q 78 61 102 49 q 127 37 163 34 l 217 232 l 191 242 q 118 266 92 304 q 66 342 82 400 q 96 453 135 496 q 173 539 228 562 q 258 577 310 582 l 333 668 l 382 668 l 359 583 q 441 578 482 545 q 522 513 509 464 q 501 432 475 410 q 448 389 417 389 q 390 389 376 406 q 362 423 369 448 q 375 470 396 493 q 402 500 404 506 q 408 518 392 527 q 378 535 347 538 z m 255 376 l 298 538 q 214 523 197 458 q 182 400 245 379 z m 261 218 l 212 37 q 233 39 250 45 q 277 54 296 76 q 316 98 323 124 q 332 158 319 180 q 306 202 268 215 z"},"?":{"x_min":0,"x_max":438,"ha":438,"o":"m 96 108 l 173 190 q 183 201 188 201 q 192 201 197 190 l 230 108 q 237 92 222 76 l 144 -7 q 134 -18 130 -18 q 125 -18 121 -7 l 88 76 q 83 86 85 92 q 87 98 96 108 z m 241 362 q 274 390 292 416 q 310 442 319 475 q 331 518 316 544 q 302 569 272 562 q 262 560 256 552 q 251 545 250 536 q 248 528 245 509 q 242 490 238 473 q 231 444 206 425 q 181 407 149 407 q 114 407 98 429 q 82 451 91 484 q 106 542 168 578 q 230 614 312 614 q 400 614 441 574 q 482 534 463 466 q 448 408 391 365 q 369 349 305 314 q 242 278 212 247 q 203 238 200 238 q 197 238 193 246 l 182 278 q 179 288 184 297 q 198 324 241 362 z"},"<":{"x_min":0,"x_max":505,"ha":505,"o":"m 491 337 l 184 211 l 423 83 l 395 -21 l 22 172 l 43 248 l 519 441 z"},"'":{"x_min":0,"x_max":210,"ha":210,"o":"m 62 315 l 132 520 q 134 527 140 538 q 169 587 235 587 q 268 587 278 574 q 288 562 273 538 q 267 526 262 520 l 89 315 z"},"=":{"x_min":0,"x_max":505,"ha":505,"o":"m 0 77 l 25 172 l 445 172 l 420 77 z m 46 248 l 72 344 l 492 344 l 466 248 z"},"a":{"x_min":0,"x_max":556,"ha":556,"o":"m 367 387 l 498 387 l 416 110 q 408 78 408 72 q 408 67 411 62 q 415 58 419 58 q 430 58 456 87 q 482 115 506 152 l 538 131 q 516 92 483 55 q 423 -12 363 -12 q 338 -12 320 0 q 301 13 295 34 q 292 41 292 61 q 262 22 231 5 q 200 -12 157 -12 q 93 -12 53 31 q 12 73 12 139 q 12 240 85 320 q 158 399 251 399 q 325 399 355 347 z m 278 353 q 228 353 189 273 q 148 189 148 112 q 148 82 162 65 q 176 47 199 47 q 249 47 286 128 q 304 168 317 214 q 329 261 329 292 q 329 319 315 336 q 301 353 278 353 z"},"L":{"x_min":0,"x_max":587,"ha":587,"o":"m 515 222 l 558 212 l 502 0 l -34 0 l -28 45 l -25 45 q 27 45 39 57 q 44 62 47 70 q 49 78 61 120 l 158 482 q 169 524 169 534 q 169 548 157 552 q 144 557 103 557 l 88 557 l 94 602 l 412 602 l 406 557 l 391 557 q 339 557 328 545 q 322 540 319 532 q 317 524 305 482 l 208 120 q 197 79 197 67 q 197 54 206 50 q 216 45 241 45 l 271 45 q 321 45 360 62 q 399 78 440 118 q 488 162 515 222 z"},"3":{"x_min":0,"x_max":478,"ha":478,"o":"m 312 307 q 366 299 392 282 q 417 265 424 232 q 432 200 422 161 q 411 121 384 85 q 358 50 323 30 q 252 -12 155 -12 q 65 -12 20 28 q -26 67 -8 130 q 1 165 28 187 q 54 209 88 209 q 119 209 134 189 q 149 169 142 140 q 137 122 128 111 q 119 100 95 82 q 85 74 82 67 q 79 53 99 42 q 119 32 145 32 q 192 32 226 66 q 260 101 278 163 q 309 282 232 282 q 230 282 225 281 q 221 281 210 280 q 198 278 188 278 q 183 277 175 277 q 162 277 156 285 q 150 294 153 308 q 161 336 191 336 q 202 336 223 331 q 245 327 252 327 q 281 327 307 358 q 332 390 348 443 q 360 492 345 520 q 331 547 292 547 q 268 547 245 537 q 222 527 220 515 q 218 511 222 505 q 248 474 239 442 q 232 413 208 395 q 184 377 154 377 q 122 377 106 398 q 90 420 98 452 q 105 476 124 500 q 142 525 168 543 q 232 590 325 590 q 413 590 457 550 q 500 509 482 442 q 456 344 334 312 q 322 309 312 307 z"},";":{"x_min":0,"x_max":277,"ha":277,"o":"m 32 77 q 26 86 28 92 q 30 98 40 107 l 127 188 q 138 198 143 198 q 148 198 154 188 l 195 107 q 199 98 198 92 q 197 86 189 77 l 21 -118 q 12 -130 1 -132 q -9 -133 -12 -126 q -15 -118 -9 -105 l 51 10 q 58 27 53 37 z m 115 388 l 202 468 q 213 478 218 478 q 223 478 229 468 l 273 388 q 282 372 265 357 l 178 277 q 167 267 162 267 q 157 267 151 277 l 107 357 q 102 367 103 372 q 105 378 115 388 z"},"J":{"x_min":0,"x_max":556,"ha":556,"o":"m 277 557 l 283 602 l 598 602 l 592 557 l 589 557 q 538 557 525 545 q 520 540 518 532 q 515 524 503 482 l 435 228 q 413 148 408 130 q 402 113 392 94 q 361 38 312 13 q 263 -12 188 -12 q 94 -12 43 27 q -8 67 -8 141 q -8 199 24 236 q 55 273 103 273 q 143 273 168 251 q 192 229 192 192 q 192 160 172 138 q 151 115 120 115 q 102 115 83 126 q 69 133 64 133 q 49 133 49 112 q 49 80 76 58 q 102 35 142 35 q 204 35 242 95 q 256 118 262 135 q 268 153 285 217 l 356 482 q 368 523 368 534 q 368 548 355 552 q 342 557 302 557 z"},"V":{"x_min":0,"x_max":618,"ha":618,"o":"m 320 174 l 492 477 q 508 505 508 524 q 508 557 452 557 l 430 557 l 436 602 l 668 602 l 662 557 q 624 551 603 534 q 582 518 552 467 l 270 -12 l 215 -12 l 115 494 q 107 534 96 545 q 85 557 53 557 l 27 557 l 32 602 l 338 602 l 332 557 l 309 557 q 271 557 262 550 q 253 543 253 534 q 253 532 258 509 z"},"\"":{"x_min":0,"x_max":399,"ha":399,"o":"m 62 315 l 132 520 q 134 527 140 538 q 169 587 235 587 q 268 587 278 574 q 288 562 273 538 q 267 526 262 520 l 89 315 z m 252 315 l 321 520 q 323 527 330 538 q 343 561 369 574 q 394 587 425 587 q 457 587 467 574 q 478 562 465 538 q 462 533 451 520 l 278 315 z"},"7":{"x_min":0,"x_max":478,"ha":478,"o":"m 549 590 l 539 555 q 438 417 390 345 q 343 272 319 217 q 294 162 272 81 q 261 36 233 12 q 205 -12 165 -12 q 130 -12 115 11 q 101 33 111 70 q 123 119 191 205 q 202 220 342 372 l 421 457 q 315 454 310 454 q 298 454 216 457 q 210 458 201 458 q 179 458 167 443 q 154 428 128 373 l 109 336 l 65 341 l 160 590 q 262 578 356 578 q 472 578 549 590 z"},"S":{"x_min":0,"x_max":571,"ha":571,"o":"m 555 596 l 518 377 l 475 384 q 472 448 454 487 q 434 526 398 548 q 362 569 317 569 q 262 569 230 545 q 198 520 198 479 q 198 442 224 419 q 239 404 291 387 q 386 356 435 327 q 510 284 510 187 q 510 98 442 43 q 375 -12 267 -12 q 211 -12 169 3 q 128 18 86 54 l 38 0 l 1 0 l 42 236 l 86 229 l 86 217 q 86 132 135 82 q 183 32 264 32 q 322 32 359 59 q 395 85 395 127 q 395 163 366 186 q 337 209 252 238 q 201 255 176 268 q 152 280 132 299 q 85 343 85 412 q 85 499 148 557 q 212 614 307 614 q 401 614 473 551 l 518 596 z"},"}":{"x_min":0,"x_max":324,"ha":324,"o":"m 252 274 l 242 238 q 214 231 201 223 q 188 215 177 199 q 169 188 165 176 q 161 164 151 127 l 126 35 q 105 -43 68 -68 q 55 -78 31 -84 q 7 -90 -17 -90 l -62 -90 l -52 -52 q -18 -48 -2 -31 q 7 -22 10 -11 q 14 0 28 53 l 55 152 q 68 200 91 222 q 115 243 168 256 q 122 268 110 290 q 98 312 111 360 l 137 458 l 149 505 q 158 534 150 548 q 142 561 113 563 l 123 602 l 168 602 q 192 602 212 595 q 233 589 242 579 q 265 555 244 477 l 220 385 q 209 344 207 331 q 205 318 209 306 q 212 293 221 287 q 230 280 252 274 z"},"Z":{"x_min":0,"x_max":587,"ha":587,"o":"m 596 602 l 589 557 l 164 45 l 240 45 q 330 45 391 88 q 452 130 501 228 l 543 217 l 485 0 l -24 0 l -18 45 l 405 557 l 339 557 q 258 557 202 518 q 147 480 98 390 l 57 398 l 112 602 z"},"x":{"x_min":0,"x_max":478,"ha":478,"o":"m 177 112 l 146 68 q 119 31 88 9 q 56 -12 27 -12 q -2 -12 -22 5 q -41 22 -41 51 q -41 76 -25 92 q -10 108 15 108 q 53 108 64 66 q 67 57 72 57 q 89 57 131 116 l 165 163 l 153 218 q 140 281 132 298 q 125 316 113 316 q 102 316 91 303 q 80 290 55 247 l 54 245 q 53 244 52 242 q 51 240 50 238 l 17 255 q 38 298 62 329 q 116 399 172 399 q 209 399 230 373 q 252 348 264 287 l 282 311 q 321 362 348 380 q 374 399 408 399 q 438 399 457 382 q 476 366 476 339 q 476 314 460 298 q 445 282 422 282 q 398 282 385 294 q 372 306 372 328 q 372 338 365 338 q 344 338 275 235 l 288 167 q 300 108 308 91 q 315 73 328 73 q 358 73 391 158 l 423 141 q 407 95 376 52 q 332 -12 274 -12 q 234 -12 210 18 q 192 39 179 100 z"},")":{"x_min":0,"x_max":324,"ha":324,"o":"m 132 572 l 142 614 q 182 591 206 565 q 231 539 250 502 q 306 394 269 258 q 230 112 102 -2 q 67 -34 33 -55 q 0 -77 -48 -98 l -37 -57 q 3 -32 28 -10 q 52 13 77 51 q 131 132 165 258 q 202 394 186 482 q 179 512 168 532 q 156 552 132 572 z"},"&":{"x_min":0,"x_max":710,"ha":710,"o":"m 691 340 l 679 295 q 634 293 609 279 q 584 264 548 217 q 505 166 472 132 q 499 78 542 78 q 585 78 618 148 l 658 138 q 642 97 612 62 q 578 22 543 5 q 508 -12 464 -12 q 388 -12 348 42 q 254 -13 157 -13 q 60 -13 24 39 q -8 87 8 149 q 34 245 149 304 q 180 320 228 339 q 219 377 219 403 q 219 429 228 459 q 235 490 257 520 q 278 549 306 570 q 368 614 448 614 q 517 614 550 581 q 582 548 568 495 q 553 439 496 401 q 453 373 383 348 q 401 293 421 240 q 442 188 452 172 q 506 220 515 254 q 521 275 506 285 q 491 294 452 295 l 463 340 z m 237 298 q 182 268 168 215 q 158 181 168 142 q 187 56 262 56 q 292 56 322 74 q 260 186 237 298 z m 370 387 q 382 392 385 392 q 458 425 476 491 q 485 525 472 548 q 460 571 432 571 q 408 571 386 553 q 364 535 357 508 q 351 484 354 457 q 357 430 370 387 z"},"_":{"x_min":0,"x_max":417,"ha":417,"o":"m -77 -48 l 340 -48 l 320 -123 l -97 -123 z"},"v":{"x_min":0,"x_max":463,"ha":463,"o":"m 255 398 l 194 192 q 174 112 174 94 q 174 76 188 61 q 202 47 221 47 q 263 47 304 109 q 355 186 355 245 q 355 258 350 266 q 344 273 318 298 q 294 321 294 345 q 294 369 310 384 q 326 399 352 399 q 381 399 399 379 q 417 358 417 325 q 417 279 400 222 q 383 164 357 116 q 285 -12 178 -12 q 123 -12 84 22 q 48 53 48 110 q 48 143 58 176 l 85 266 q 98 311 98 322 q 98 338 88 342 q 78 348 47 348 l 27 348 l 32 387 z"},"O":{"x_min":0,"x_max":694,"ha":694,"o":"m 408 614 q 522 614 595 538 q 664 468 664 368 q 664 212 552 100 q 439 -12 285 -12 q 169 -12 100 56 q 30 125 30 238 q 30 313 61 385 q 92 456 147 508 q 258 614 408 614 z m 406 569 q 314 569 250 440 q 219 378 199 298 q 179 219 179 161 q 179 102 208 67 q 236 32 285 32 q 375 32 444 163 q 475 223 493 296 q 511 368 511 433 q 511 492 488 526 q 476 545 453 557 q 430 569 406 569 z"},"(":{"x_min":0,"x_max":324,"ha":324,"o":"m 202 -57 l 191 -98 q 152 -75 128 -49 q 103 -23 84 14 q 28 122 65 258 q 104 404 231 518 q 268 550 301 571 q 334 592 382 614 l 371 572 q 331 548 306 525 q 282 502 258 465 q 202 384 169 258 q 132 122 148 34 q 155 3 166 -16 q 178 -36 202 -57 z"},"C":{"x_min":0,"x_max":632,"ha":632,"o":"m 632 593 l 584 355 l 543 360 q 540 467 506 518 q 472 570 406 570 q 319 570 267 480 q 230 420 209 344 q 188 268 188 198 q 188 125 226 82 q 265 40 331 40 q 388 40 439 78 q 490 117 513 177 l 566 177 q 545 111 492 58 q 422 -12 307 -12 q 248 -12 192 7 q 137 26 102 59 q 29 128 29 243 q 29 392 138 503 q 248 614 394 614 q 492 614 548 546 l 594 593 z"},"W":{"x_min":0,"x_max":787,"ha":787,"o":"m 568 230 l 676 488 q 687 513 687 527 q 687 540 674 548 q 662 557 642 557 l 627 557 l 632 602 l 828 602 l 822 557 q 783 550 762 526 q 740 502 712 437 l 518 -12 l 463 -12 l 407 391 l 222 -12 l 167 -12 l 95 525 q 92 543 82 550 q 72 557 46 557 l 33 557 l 39 602 l 292 602 l 286 557 l 273 557 q 251 557 243 551 q 236 545 236 527 l 237 513 l 273 220 l 397 494 l 394 519 q 392 541 380 549 q 368 557 338 557 l 324 557 l 330 602 l 589 602 l 583 557 l 565 557 q 544 557 535 551 q 526 546 527 533 q 527 526 529 511 z"},"A":{"x_min":0,"x_max":618,"ha":618,"o":"m 401 613 l 510 95 q 517 66 532 55 q 547 45 585 45 l 597 45 l 591 0 l 279 0 l 285 45 l 298 45 q 340 45 353 52 q 368 58 368 71 q 368 82 364 98 l 348 183 l 154 183 l 116 116 q 104 97 104 80 q 104 45 172 45 l 182 45 l 176 0 l -62 0 l -57 45 l -52 45 q -24 45 6 68 q 36 91 59 131 l 349 613 z m 337 228 l 298 429 l 181 228 z"},"f":{"x_min":0,"x_max":324,"ha":324,"o":"m 352 387 l 338 336 l 234 336 l 195 158 q 157 -24 111 -149 l -40 -171 q -4 -115 58 111 l 111 336 l 28 336 l 42 387 l 124 387 q 155 498 201 548 q 262 614 344 614 q 394 614 426 588 q 458 562 458 522 q 458 494 440 475 q 422 457 393 457 q 369 457 353 472 q 337 488 337 512 q 337 533 357 559 q 361 563 361 567 q 361 575 342 575 q 312 575 295 544 q 277 512 254 421 l 246 387 z"},"Q":{"x_min":0,"x_max":694,"ha":694,"o":"m 568 -25 l 603 -43 q 555 -155 447 -155 q 408 -155 378 -139 q 348 -122 336 -94 q 323 -65 323 -10 q 293 -12 278 -12 q 230 -12 184 5 q 138 22 105 51 q 29 119 29 235 q 29 389 140 502 q 251 614 403 614 q 524 614 598 536 q 663 467 663 364 q 663 225 577 118 q 535 67 467 34 q 474 -43 483 -63 q 494 -87 510 -87 q 542 -87 568 -25 z m 438 150 q 469 189 490 268 q 512 348 512 427 q 512 498 488 532 q 459 571 404 571 q 305 571 240 422 q 213 359 197 291 q 180 223 180 174 q 180 160 182 128 q 189 178 221 205 q 252 231 305 231 q 399 231 438 150 z m 331 45 q 342 102 342 124 q 342 148 325 165 q 308 181 282 181 q 253 181 234 159 q 215 137 215 103 q 215 70 235 51 q 254 32 288 32 q 311 32 331 45 z"},"w":{"x_min":0,"x_max":694,"ha":694,"o":"m 489 387 l 432 192 q 412 112 412 94 q 412 76 425 61 q 439 47 457 47 q 478 47 501 64 q 525 81 544 109 q 595 185 595 247 q 595 258 589 267 q 583 275 558 298 q 534 319 534 345 q 534 369 550 384 q 566 399 592 399 q 621 399 639 379 q 657 358 657 325 q 657 280 640 222 q 623 163 597 116 q 523 -12 412 -12 q 362 -12 330 13 q 298 38 288 86 q 248 34 209 11 q 169 -12 119 -12 q 71 -12 45 11 q 18 35 18 79 q 18 107 35 165 l 65 266 q 78 312 78 322 q 78 338 68 342 q 58 348 27 348 l 18 348 l 24 387 l 236 398 l 161 148 q 149 105 149 90 q 149 78 158 68 q 168 59 179 59 q 226 59 265 121 q 276 138 291 174 q 306 210 314 238 l 358 387 z"},"-":{"x_min":0,"x_max":352,"ha":352,"o":"m 332 294 l 283 199 q 279 192 276 189 q 272 187 264 187 l 28 187 q 16 187 15 190 q 14 194 20 203 l 69 298 q 72 306 76 308 q 79 311 88 311 l 324 311 q 337 311 338 307 q 338 303 332 294 z"},"E":{"x_min":0,"x_max":618,"ha":618,"o":"m 607 602 l 573 398 l 530 398 q 529 472 512 503 q 488 557 398 557 l 367 557 q 341 557 331 549 q 321 541 314 517 l 265 334 l 282 334 q 337 334 368 357 q 400 380 421 436 l 465 430 l 390 151 l 346 157 q 350 188 350 208 q 350 289 272 289 l 253 289 l 201 92 q 196 76 196 66 q 196 45 241 45 l 271 45 q 321 45 360 62 q 399 78 440 118 q 486 161 513 216 l 557 207 l 502 0 l -34 0 l -28 45 l -25 45 q 18 45 32 52 q 45 59 52 85 l 61 120 l 158 482 q 169 524 169 534 q 169 548 157 552 q 144 557 103 557 l 88 557 l 94 602 z"},"s":{"x_min":0,"x_max":401,"ha":401,"o":"m 215 399 q 281 399 322 373 q 364 347 364 306 q 364 280 348 264 q 332 248 307 248 q 282 248 265 262 q 249 277 249 298 q 249 313 264 332 q 269 338 269 342 q 269 349 255 355 q 241 360 222 360 q 190 360 169 346 q 148 332 148 309 q 148 292 162 280 q 177 268 213 252 q 258 232 276 220 q 332 183 332 124 q 332 62 282 25 q 232 -12 150 -12 q 84 -12 43 14 q 2 41 2 84 q 2 111 18 128 q 34 144 60 144 q 85 144 102 129 q 119 114 119 91 q 119 71 98 52 q 93 48 93 45 q 93 36 108 30 q 123 23 146 23 q 180 23 202 40 q 225 56 225 81 q 225 112 177 132 q 126 153 107 165 q 47 201 47 267 q 47 328 92 363 q 138 399 215 399 z"},">":{"x_min":0,"x_max":505,"ha":505,"o":"m 67 337 l 95 441 l 468 248 l 447 172 l -29 -21 l -1 83 l 307 211 z"},"l":{"x_min":0,"x_max":324,"ha":324,"o":"m 308 613 l 157 102 l 152 88 q 148 74 148 67 q 148 52 161 52 q 175 52 200 79 q 225 106 250 147 l 282 124 q 257 78 211 34 q 162 -12 107 -12 q 68 -12 45 8 q 22 29 22 63 q 22 91 41 152 l 138 482 q 151 523 151 537 q 151 552 141 558 q 131 562 100 562 l 80 562 l 86 602 z"},"8":{"x_min":0,"x_max":478,"ha":478,"o":"m 364 342 q 471 295 440 179 q 417 93 340 41 q 264 -12 163 -12 q 68 -12 23 28 q -22 68 -4 136 q 16 211 89 244 q 104 252 145 263 q 62 315 88 412 q 110 493 181 542 q 252 590 348 590 q 428 590 469 554 q 510 518 494 461 q 478 401 418 366 q 401 356 364 342 z m 328 363 l 329 365 q 349 379 365 402 q 381 426 388 452 q 399 496 382 521 q 364 547 322 547 q 283 547 252 524 q 220 501 211 467 q 203 439 215 416 q 226 392 252 382 q 272 372 322 360 q 324 361 326 362 z m 183 241 q 148 217 130 195 q 113 172 104 138 q 91 88 112 60 q 133 32 184 32 q 233 32 272 59 q 312 87 323 129 q 332 161 320 180 q 308 198 272 212 q 253 219 183 241 z"},"\\":{"x_min":0,"x_max":505,"ha":505,"o":"m 203 614 l 398 0 l 337 0 l 142 614 z"},"e":{"x_min":0,"x_max":432,"ha":432,"o":"m 329 105 l 358 76 q 281 -12 168 -12 q 86 -12 42 28 q -2 68 -2 142 q -2 245 78 322 q 157 399 262 399 q 320 399 359 370 q 398 342 398 298 q 398 212 257 171 q 202 154 132 151 q 131 129 131 114 q 131 78 150 58 q 169 38 202 38 q 235 38 263 52 q 292 68 329 105 z m 140 190 q 176 195 198 203 q 241 219 269 253 q 297 287 297 321 q 297 339 287 350 q 277 360 260 360 q 221 360 188 313 q 154 266 140 190 z"},"b":{"x_min":0,"x_max":509,"ha":509,"o":"m 292 613 l 217 356 q 268 399 324 399 q 383 399 424 358 q 464 317 464 256 q 464 203 440 150 q 415 98 372 58 q 297 -12 193 -12 q 117 -12 70 24 q 23 60 23 121 q 23 141 26 152 q 28 164 42 210 l 122 482 q 136 527 136 537 q 136 552 125 558 q 115 562 84 562 l 64 562 l 70 602 z m 275 340 q 228 340 190 263 q 171 224 157 171 q 142 118 142 87 q 142 58 158 41 q 173 23 198 23 q 248 23 289 118 q 304 151 316 201 q 328 251 328 278 q 328 304 313 322 q 298 340 275 340 z"},"%":{"x_min":0,"x_max":694,"ha":694,"o":"m 668 602 l 162 0 l 91 0 l 495 482 q 469 475 431 474 q 392 472 372 478 q 362 441 335 400 q 308 358 272 327 q 202 262 131 262 q 83 262 60 292 q 37 322 49 369 q 61 412 100 463 q 138 513 185 546 q 248 590 304 590 q 329 590 345 581 q 361 572 372 550 q 400 534 444 534 q 491 534 528 550 q 564 566 601 602 z m 291 523 q 271 518 258 507 q 245 496 218 464 q 160 394 151 362 q 147 347 154 337 q 161 327 176 327 q 213 327 260 373 q 306 420 320 472 q 323 484 323 498 q 302 507 291 523 z m 609 339 q 653 339 674 310 q 695 281 683 236 q 673 198 644 155 q 615 111 577 74 q 545 45 509 28 q 472 12 440 12 q 391 12 367 41 q 343 71 356 117 q 365 152 391 192 q 418 232 452 266 q 533 339 609 339 z m 603 272 q 577 272 536 225 q 467 147 458 111 q 453 96 460 85 q 468 75 482 75 q 520 75 567 122 q 614 168 628 221 q 634 242 627 257 q 620 272 603 272 z"},"m":{"x_min":0,"x_max":787,"ha":787,"o":"m 241 398 l 217 297 q 295 399 373 399 q 422 399 452 362 q 467 342 467 312 l 467 307 q 543 399 614 399 q 655 399 680 375 q 705 352 705 312 q 705 276 687 224 l 637 85 q 632 72 632 66 q 632 55 647 55 q 658 55 673 71 q 688 87 730 142 l 735 148 l 767 125 q 678 -12 591 -12 q 558 -12 534 9 q 510 30 510 59 q 510 82 531 142 l 572 259 q 582 290 582 308 q 582 328 561 328 q 531 328 491 280 q 447 227 408 92 l 380 0 l 248 0 l 307 196 q 332 283 332 308 q 332 318 328 323 q 323 329 317 329 q 291 329 247 272 q 199 208 172 116 l 138 0 l 8 0 l 87 266 q 99 310 99 322 q 99 338 89 342 q 79 348 48 348 l 28 348 l 34 387 z"},"#":{"x_min":0,"x_max":478,"ha":478,"o":"m 98 183 l 19 183 l 38 252 l 126 252 l 163 342 l 83 342 l 102 412 l 191 412 l 262 583 l 338 583 l 266 412 l 338 412 l 408 583 l 483 583 l 412 412 l 490 412 l 472 342 l 384 342 l 348 252 l 426 252 l 408 183 l 319 183 l 243 0 l 168 0 l 244 183 l 172 183 l 97 0 l 22 0 z m 238 342 l 201 252 l 272 252 l 309 342 z"},",":{"x_min":0,"x_max":274,"ha":274,"o":"m 32 77 q 26 86 28 92 q 30 98 40 107 l 127 188 q 138 198 143 198 q 148 198 154 188 l 195 107 q 199 98 198 92 q 197 86 189 77 l 21 -118 q 12 -130 1 -132 q -9 -133 -12 -126 q -15 -118 -9 -105 l 51 10 q 58 27 53 37 z"},"n":{"x_min":0,"x_max":571,"ha":571,"o":"m 238 398 l 211 288 q 258 348 297 374 q 336 399 382 399 q 422 399 449 375 q 476 351 476 313 q 476 275 450 207 l 411 100 q 402 75 402 68 q 402 63 406 59 q 410 55 414 55 q 426 55 444 74 q 462 92 495 138 l 502 148 l 535 127 q 487 52 446 20 q 405 -12 359 -12 q 320 -12 297 8 q 274 28 274 63 q 274 88 291 136 l 342 277 q 350 297 350 307 q 350 315 342 322 q 334 328 325 328 q 294 328 246 271 q 197 212 165 106 l 133 0 l 2 0 l 82 266 q 94 309 94 322 q 94 338 84 342 q 74 348 43 348 l 23 348 l 29 387 z"},"h":{"x_min":0,"x_max":571,"ha":571,"o":"m 313 613 l 222 305 q 298 399 378 399 q 419 399 445 375 q 472 351 472 313 q 472 277 447 207 l 408 100 q 398 75 398 68 q 398 63 402 59 q 406 55 410 55 q 422 55 440 73 q 458 92 491 138 q 493 141 498 148 l 531 127 q 482 52 442 20 q 401 -12 355 -12 q 316 -12 293 8 q 270 28 270 63 q 270 88 288 136 l 338 277 q 346 297 346 307 q 346 315 338 322 q 331 329 322 329 q 292 329 243 271 q 194 211 162 106 l 131 0 l 0 0 l 142 482 q 156 523 156 537 q 156 552 145 558 q 135 562 104 562 l 84 562 l 90 602 z"},"z":{"x_min":0,"x_max":432,"ha":432,"o":"m 347 141 l 383 128 q 362 60 319 24 q 275 -12 216 -12 q 182 -12 156 -2 q 129 8 72 41 q 59 48 54 48 q 42 48 42 23 q 41 -12 11 -12 q 0 -12 -8 -4 q -16 4 -16 16 q -16 46 39 109 q 102 181 187 226 q 202 234 220 243 q 238 252 247 257 q 255 261 256 262 q 258 262 263 266 q 269 270 277 275 q 285 280 292 285 q 257 273 223 273 q 201 273 148 282 q 113 288 102 288 q 82 288 72 279 q 62 270 48 238 l 13 251 q 65 399 178 399 q 222 399 290 363 q 318 348 327 348 q 338 348 344 375 q 352 399 368 399 q 378 399 385 391 q 392 382 392 372 q 392 323 298 233 q 269 206 244 190 q 219 174 145 136 q 122 124 92 105 q 139 113 167 113 q 202 113 246 101 q 285 89 292 89 q 322 89 347 141 z"},"B":{"x_min":0,"x_max":632,"ha":632,"o":"m 87 602 l 380 602 q 488 602 536 572 q 600 534 600 459 q 600 397 550 357 q 500 318 408 307 q 569 278 569 162 q 569 118 546 82 q 522 46 482 30 q 410 0 307 0 l -42 0 l -36 45 l -32 45 q 19 45 32 57 q 37 62 39 70 q 42 78 53 120 l 151 482 q 162 522 162 534 q 162 548 149 552 q 137 557 96 557 l 80 557 z m 257 331 l 282 331 q 327 331 349 335 q 371 340 390 352 q 417 371 432 403 q 448 435 448 472 q 448 513 427 535 q 406 557 367 557 l 354 557 q 332 557 322 547 q 312 538 304 507 z m 245 286 l 196 102 q 189 78 189 70 q 189 45 233 45 l 261 45 q 328 45 363 76 q 385 94 398 126 q 410 158 410 194 q 410 246 379 268 q 363 279 346 282 q 328 286 287 286 z"},"K":{"x_min":0,"x_max":648,"ha":648,"o":"m 254 294 l 477 501 q 502 525 502 536 q 502 557 468 557 l 438 557 l 444 602 l 693 602 l 688 557 q 643 554 612 540 q 581 525 544 489 l 409 364 l 528 108 q 548 63 562 54 q 575 45 618 45 l 631 45 l 624 0 l 312 0 l 318 45 l 344 45 q 373 45 384 49 q 394 52 394 63 q 394 70 385 89 l 300 267 l 230 202 l 208 120 q 197 80 197 68 q 197 53 209 49 q 222 45 262 45 l 272 45 l 265 0 l -34 0 l -28 45 l -25 45 q 25 45 39 57 q 44 62 47 70 q 50 78 62 121 l 158 482 q 169 522 169 534 q 169 548 157 552 q 144 557 103 557 l 88 557 l 94 602 l 407 602 l 401 557 l 391 557 q 339 557 328 545 q 322 540 319 532 q 317 524 305 482 z"},"R":{"x_min":0,"x_max":663,"ha":663,"o":"m 253 292 l 208 120 q 197 77 197 68 q 197 53 209 49 q 222 45 262 45 l 284 45 l 278 0 l -34 0 l -28 45 l -25 45 q 27 45 38 57 q 44 62 47 70 q 50 78 61 120 l 158 482 q 169 524 169 534 q 169 548 157 552 q 144 557 103 557 l 88 557 l 93 602 l 382 602 q 501 602 559 575 q 589 561 608 530 q 626 500 626 462 q 626 318 387 299 q 440 284 470 253 q 502 218 502 151 l 502 122 q 502 82 503 74 q 504 66 508 60 q 515 51 523 51 q 535 51 548 63 q 560 75 568 95 q 574 108 582 131 l 618 113 q 577 -12 472 -12 q 420 -12 387 21 q 353 54 353 106 q 353 129 359 176 q 363 205 363 224 q 363 292 278 292 z m 266 337 l 294 337 q 351 337 374 342 q 398 347 418 362 q 443 381 458 411 q 472 442 472 475 q 472 514 449 535 q 426 557 382 557 l 362 557 q 339 557 330 550 q 322 544 317 525 z"},"T":{"x_min":0,"x_max":602,"ha":602,"o":"m 635 602 l 598 366 l 554 370 q 557 399 557 420 q 557 486 531 521 q 506 557 458 557 q 440 557 435 551 q 430 546 422 519 l 316 120 q 304 78 304 68 q 304 53 317 49 q 330 45 371 45 l 392 45 l 386 0 l 55 0 l 61 45 l 83 45 q 135 45 147 57 q 152 62 155 70 q 158 78 169 120 l 278 524 q 281 535 281 544 q 281 557 258 557 q 204 557 163 512 q 122 468 78 366 l 37 379 l 96 602 z"},"P":{"x_min":0,"x_max":618,"ha":618,"o":"m 248 259 l 210 120 q 198 78 198 68 q 198 53 211 49 q 224 45 265 45 l 286 45 l 280 0 l -32 0 l -26 45 l -22 45 q 21 45 34 52 q 48 59 54 85 l 63 120 l 160 482 q 172 525 172 534 q 172 548 159 552 q 146 557 105 557 l 93 557 l 99 602 l 362 602 q 497 602 549 564 q 609 522 609 444 q 609 391 582 350 q 555 308 507 288 q 444 259 314 259 z m 259 304 l 300 304 q 370 304 406 333 q 429 352 445 391 q 460 429 460 469 q 460 509 439 533 q 418 557 382 557 l 368 557 q 342 557 332 549 q 322 541 315 512 z"},"|":{"x_min":0,"x_max":505,"ha":505,"o":"m 398 602 l 238 0 l 138 0 l 299 602 z"},"t":{"x_min":0,"x_max":339,"ha":339,"o":"m 250 152 l 281 130 q 248 78 224 53 q 163 -12 99 -12 q 66 -12 43 8 q 20 28 20 58 q 20 82 32 122 q 37 136 41 152 l 95 336 l 22 336 l 38 387 l 110 387 l 157 542 l 288 542 l 242 387 l 337 387 l 322 336 l 227 336 l 168 139 q 151 79 151 70 q 151 64 155 60 q 158 55 163 55 q 176 55 201 83 q 227 112 250 152 z"},"M":{"x_min":0,"x_max":787,"ha":787,"o":"m 338 602 l 368 216 l 599 602 l 823 602 l 818 557 l 814 557 q 762 557 750 545 q 745 541 742 533 q 740 525 728 482 l 631 120 q 620 77 620 68 q 620 53 632 49 q 645 45 686 45 l 702 45 l 695 0 l 389 0 l 395 45 l 398 45 q 450 45 462 57 q 468 62 470 70 q 473 78 484 120 l 578 468 l 297 0 l 244 0 l 212 472 l 133 180 q 116 110 116 91 q 116 45 184 45 l 178 0 l -20 0 l -14 45 q 20 48 38 74 q 56 100 78 180 l 158 482 q 170 525 170 534 q 170 548 158 552 q 145 557 104 557 l 88 557 l 94 602 z"},"g":{"x_min":0,"x_max":509,"ha":509,"o":"m 332 386 q 391 444 442 444 q 468 444 485 429 q 502 413 502 388 q 502 368 489 354 q 477 340 458 340 q 429 340 416 376 q 410 390 402 390 q 388 390 373 370 q 439 332 439 262 q 439 205 390 168 q 340 131 264 131 q 225 131 167 139 q 148 142 138 142 q 122 142 110 134 q 99 127 99 116 q 99 91 140 88 q 256 76 288 69 q 334 58 355 35 q 375 12 375 -29 q 375 -97 315 -132 q 256 -168 143 -168 q 49 -168 -3 -144 q -55 -120 -55 -76 q -55 -14 50 5 q 22 20 11 35 q 0 50 0 72 q 0 140 100 172 q 58 207 58 253 q 58 318 110 358 q 163 399 247 399 q 292 399 332 386 z m 264 360 q 230 360 209 324 q 185 281 185 231 q 185 202 200 187 q 214 171 239 171 q 275 171 294 211 q 316 254 316 301 q 316 327 301 343 q 287 360 264 360 z m 118 -22 q 48 -22 48 -71 q 48 -129 148 -129 q 274 -129 274 -71 q 274 -42 238 -33 q 194 -22 118 -22 z"},"j":{"x_min":0,"x_max":308,"ha":308,"o":"m 246 472 q 218 472 197 494 q 176 515 176 543 q 176 572 197 593 q 218 614 247 614 q 276 614 297 593 q 318 572 318 543 q 318 514 297 493 q 276 472 246 472 z m 299 398 l 200 62 q 180 -3 166 -34 q 152 -64 128 -93 q 68 -168 -20 -168 q -72 -168 -107 -142 q -142 -116 -142 -75 q -142 -44 -124 -25 q -106 -6 -77 -6 q -48 -6 -32 -22 q -15 -39 -15 -68 q -15 -85 -20 -93 q -24 -101 -38 -109 q -43 -112 -43 -118 q -43 -128 -29 -128 q -5 -128 12 -101 q 28 -74 50 0 l 129 266 q 142 309 142 322 q 142 338 132 342 q 122 348 91 348 l 64 348 l 70 387 z"},"i":{"x_min":0,"x_max":324,"ha":324,"o":"m 252 398 l 164 102 q 156 73 156 67 q 156 53 169 53 q 194 53 253 148 l 286 124 q 243 52 202 20 q 161 -12 113 -12 q 76 -12 51 9 q 27 30 27 62 q 27 82 39 124 l 82 266 q 94 308 94 322 q 94 338 84 342 q 74 348 43 348 l 23 348 l 29 387 z m 206 472 q 178 472 157 494 q 136 515 136 543 q 136 572 157 593 q 178 614 207 614 q 236 614 257 593 q 278 572 278 543 q 278 514 257 493 q 236 472 206 472 z"},"y":{"x_min":0,"x_max":432,"ha":432,"o":"m 225 278 l 272 119 q 328 213 328 251 q 328 269 312 295 q 294 321 294 344 q 294 368 311 384 q 328 399 353 399 q 379 399 395 385 q 410 372 410 348 q 410 312 376 235 q 342 158 288 69 q 213 -53 151 -116 q 99 -168 33 -168 q -7 -168 -31 -148 q -55 -127 -55 -92 q -55 -66 -38 -49 q -22 -32 4 -32 q 29 -32 45 -47 q 62 -62 62 -85 q 62 -95 57 -108 q 56 -110 56 -113 q 56 -122 67 -122 q 83 -122 110 -100 q 137 -79 158 -48 l 182 -15 l 99 267 q 92 290 88 297 q 83 304 75 304 q 64 304 56 288 q 48 272 30 215 l -6 226 q 35 399 129 399 q 174 399 194 360 q 211 328 225 278 z"},"@":{"x_min":0,"x_max":622,"ha":622,"o":"m 515 158 l 572 158 q 546 119 498 82 q 380 -12 255 -12 q 193 -12 143 12 q 93 37 65 79 q 37 122 28 179 q 18 236 37 302 q 59 387 119 459 q 179 531 260 572 q 342 614 424 614 q 501 614 555 580 q 610 545 631 485 q 652 426 632 355 q 608 264 528 194 q 448 123 369 123 q 340 123 326 136 q 312 149 318 170 q 318 172 322 183 q 272 121 212 121 q 165 121 143 157 q 121 192 135 245 q 145 284 172 328 q 199 371 235 407 q 268 440 308 459 q 348 478 385 478 q 412 478 426 468 q 441 458 451 435 l 468 463 l 555 463 l 414 223 q 402 202 400 192 q 395 174 415 174 q 439 174 475 199 q 552 252 578 349 q 602 442 555 503 q 508 563 410 563 q 302 563 212 490 q 121 416 91 305 q 72 228 88 169 q 103 109 152 74 q 201 38 270 38 q 338 38 401 69 q 464 100 515 158 z m 391 434 q 352 434 302 373 q 270 334 246 291 q 222 248 212 213 q 206 190 212 177 q 219 164 238 164 q 278 164 326 233 q 353 273 384 327 q 415 381 420 397 q 423 412 415 423 q 407 434 391 434 z"},".":{"x_min":0,"x_max":277,"ha":277,"o":"m 38 107 l 126 188 q 137 198 142 198 q 148 198 153 188 l 197 107 q 205 92 188 77 l 102 -4 q 91 -14 85 -14 q 80 -14 74 -4 l 31 77 q 26 86 28 92 q 29 98 38 107 z"},"p":{"x_min":0,"x_max":540,"ha":540,"o":"m 228 398 l 214 332 q 272 399 346 399 q 412 399 452 358 q 492 318 492 248 q 492 146 419 67 q 347 -12 252 -12 q 181 -12 148 42 l 119 -54 q 106 -100 106 -108 q 106 -129 153 -129 l 166 -129 l 160 -168 l -98 -168 l -92 -129 l -89 -129 q -48 -129 -37 -118 q -31 -112 -28 -105 q -25 -97 -12 -54 l 83 268 q 96 310 96 322 q 96 338 85 342 q 75 348 44 348 l 24 348 l 30 387 z m 305 341 q 260 341 225 279 q 206 244 189 187 q 172 130 172 98 q 172 72 188 54 q 205 36 229 36 q 276 36 310 102 q 331 142 345 193 q 358 244 358 280 q 358 308 344 324 q 329 341 305 341 z"},"X":{"x_min":0,"x_max":618,"ha":618,"o":"m 378 337 l 488 91 q 500 63 516 54 q 532 45 568 45 l 588 45 l 582 0 l 259 0 l 265 45 l 299 45 q 323 45 332 49 q 341 52 341 63 q 341 72 332 91 l 272 232 l 159 122 q 133 98 133 78 q 133 45 188 45 l 207 45 l 201 0 l -60 0 l -54 45 q -23 44 5 58 q 32 72 69 108 l 250 285 l 145 518 q 133 542 122 550 q 112 557 83 557 l 52 557 l 59 602 l 371 602 l 365 557 l 338 557 q 312 557 302 553 q 292 549 292 540 q 292 533 300 516 l 358 390 l 460 492 q 480 510 480 530 q 480 557 430 557 l 417 557 l 422 602 l 676 602 l 670 557 q 625 553 600 540 q 576 528 528 481 z"},"*":{"x_min":0,"x_max":417,"ha":417,"o":"m 246 412 l 230 404 q 209 393 198 384 q 186 375 162 349 q 135 320 108 320 q 91 320 82 331 q 74 342 78 358 q 86 387 117 399 q 131 404 164 406 q 195 408 224 422 l 240 431 l 228 438 q 212 449 200 452 q 189 455 158 457 q 134 458 123 471 q 112 484 118 503 q 122 519 136 530 q 151 542 168 542 q 187 542 198 528 q 202 522 212 497 q 223 472 244 458 l 255 449 l 260 465 q 265 485 265 497 q 264 508 258 539 q 253 555 258 570 q 262 588 278 601 q 293 614 309 614 q 327 614 335 601 q 343 588 338 569 q 336 560 331 552 q 327 545 308 521 q 288 495 281 465 l 276 449 l 292 458 q 313 469 324 478 q 335 487 360 512 q 388 542 414 542 q 431 542 439 530 q 448 519 443 503 q 436 476 405 462 q 394 458 357 455 q 329 454 298 438 l 282 431 l 293 423 q 310 412 321 410 q 332 407 362 405 q 387 403 398 390 q 409 377 404 358 q 400 342 386 331 q 372 321 357 321 q 340 321 331 329 q 322 338 310 366 q 299 389 278 404 l 267 412 l 262 397 q 257 377 257 365 q 257 352 263 322 q 268 307 263 292 q 258 273 243 260 q 228 248 212 248 q 195 248 187 260 q 178 273 183 292 q 186 301 190 308 q 195 316 213 341 q 233 367 242 397 z"},"Y":{"x_min":0,"x_max":587,"ha":587,"o":"m 328 316 l 461 491 q 475 509 475 527 q 475 557 428 557 l 398 557 l 404 602 l 648 602 l 642 557 q 602 556 577 538 q 551 521 513 472 l 347 256 l 311 120 q 299 76 299 68 q 299 53 312 49 q 325 45 366 45 l 387 45 l 381 0 l 57 0 l 62 45 l 78 45 q 130 45 142 57 q 148 62 150 70 q 153 78 164 120 l 200 256 l 102 509 q 92 538 77 547 q 62 557 32 557 l 12 557 l 18 602 l 323 602 l 318 557 l 282 557 q 260 557 252 552 q 245 548 245 537 q 245 527 252 508 z"},"c":{"x_min":0,"x_max":448,"ha":448,"o":"m 338 122 l 368 97 q 282 -12 175 -12 q 96 -12 49 30 q 2 72 2 142 q 2 247 80 322 q 157 398 263 398 q 328 398 367 369 q 406 340 406 292 q 406 257 386 235 q 367 214 334 214 q 306 214 288 231 q 269 248 269 274 q 269 306 301 325 q 311 332 311 338 q 311 348 301 353 q 291 359 276 359 q 222 359 183 287 q 165 252 152 205 q 140 157 140 118 q 140 83 159 61 q 178 39 208 39 q 267 39 338 122 z"},"!":{"x_min":0,"x_max":272,"ha":272,"o":"m 33 108 l 112 190 q 122 201 126 201 q 130 201 134 190 l 168 108 q 174 92 159 76 l 82 -7 q 72 -18 67 -18 q 62 -18 58 -7 l 25 76 q 21 86 22 92 q 24 98 33 108 z m 172 270 l 270 472 q 284 501 291 527 q 314 614 238 614 q 158 614 136 528 q 128 499 127 472 l 117 270 q 117 259 122 250 q 130 237 136 237 q 142 237 157 250 q 167 260 172 270 z"},"/":{"x_min":0,"x_max":232,"ha":232,"o":"m 291 614 l 352 614 l -24 -12 l -86 -12 z"},"[":{"x_min":0,"x_max":324,"ha":324,"o":"m 380 602 l 369 560 l 259 560 l 96 -48 l 206 -48 l 195 -90 l -18 -90 l 168 602 z"},"6":{"x_min":0,"x_max":478,"ha":478,"o":"m 185 301 q 219 331 250 343 q 281 356 321 356 q 395 356 429 308 q 463 261 443 186 q 420 100 345 44 q 270 -12 178 -12 q 76 -12 34 64 q -4 134 28 255 q 68 402 164 495 q 262 590 379 590 q 451 590 485 558 q 518 527 504 473 q 495 439 469 419 q 442 398 407 398 q 374 398 359 416 q 343 434 351 462 q 358 490 381 512 q 389 520 392 528 q 393 536 385 541 q 377 547 361 547 q 318 547 278 500 q 238 452 206 364 q 191 325 185 301 z m 261 293 q 238 294 215 279 q 193 263 179 237 q 164 206 152 162 q 135 98 144 62 q 153 28 188 28 q 221 28 249 66 q 277 104 296 177 q 327 291 261 293 z"},"r":{"x_min":0,"x_max":432,"ha":432,"o":"m 238 398 l 212 292 q 250 351 284 375 q 318 399 359 399 q 394 399 415 379 q 437 359 437 326 q 437 297 419 277 q 401 257 374 257 q 354 257 338 268 q 322 279 318 298 q 316 308 316 323 q 316 334 308 334 q 296 334 274 312 q 243 283 215 230 q 186 176 168 116 l 133 0 l 2 0 l 82 266 q 94 308 94 322 q 94 338 84 342 q 74 348 43 348 l 23 348 l 29 387 z"},"2":{"x_min":0,"x_max":478,"ha":478,"o":"m 393 222 l 438 222 l 359 -3 q 327 0 309 0 l -4 0 q -18 0 -48 -3 l -38 36 q 6 81 50 120 q 93 159 182 232 q 268 303 304 348 q 340 393 354 445 q 367 492 350 517 q 332 542 288 542 q 258 542 225 525 q 192 508 188 488 q 185 478 197 472 q 222 458 230 440 q 238 423 231 397 q 222 364 198 345 q 173 326 141 326 q 103 326 88 352 q 72 378 84 422 q 102 492 174 541 q 245 590 330 590 q 418 590 464 545 q 511 500 492 433 q 477 372 415 312 q 391 289 355 267 q 319 244 216 188 q 161 156 116 125 l 277 125 q 317 126 325 127 q 334 128 341 132 q 352 138 373 180 z"},"{":{"x_min":0,"x_max":324,"ha":324,"o":"m 69 238 l 79 274 q 108 281 121 289 q 135 297 146 312 q 153 323 158 335 q 162 348 172 385 l 197 477 q 218 555 254 579 q 268 589 292 595 q 316 602 339 602 l 382 602 l 372 563 q 344 561 330 548 q 315 535 307 505 l 294 458 l 268 360 q 255 312 232 290 q 208 268 155 256 q 202 243 213 222 q 225 200 212 152 l 186 53 q 172 0 170 -11 q 168 -22 171 -31 q 174 -41 182 -45 q 191 -50 208 -52 l 198 -90 l 154 -90 q 131 -90 110 -84 q 89 -78 81 -68 q 58 -43 78 35 l 103 127 q 114 168 116 181 q 118 193 114 206 q 110 218 101 225 q 92 231 69 238 z"},"9":{"x_min":0,"x_max":478,"ha":478,"o":"m 318 274 q 283 245 252 232 q 220 219 181 219 q 110 219 76 268 q 42 316 62 390 q 85 477 159 533 q 233 590 324 590 q 377 590 415 568 q 453 545 474 502 q 507 432 477 322 q 440 182 352 89 q 258 -12 126 -12 q 55 -12 21 18 q -13 47 0 95 q 9 131 38 155 q 67 178 101 178 q 132 178 147 160 q 161 141 153 111 q 149 97 145 89 q 140 82 123 63 q 117 56 115 48 q 112 41 119 36 q 125 32 138 32 q 238 32 298 209 q 306 229 318 274 z m 319 547 q 248 547 212 409 q 195 348 201 318 q 204 302 217 292 q 230 282 248 282 q 279 282 306 314 q 333 347 348 402 q 367 468 359 509 q 353 547 319 547 z"}," ":{"x_min":0,"x_max":301,"ha":301,"o":""},"I":{"x_min":0,"x_max":370,"ha":370,"o":"m 277 0 l -34 0 l -28 45 l -22 45 q 29 45 41 57 q 47 62 50 70 q 52 78 63 120 l 160 482 q 172 522 172 534 q 172 548 159 552 q 147 557 106 557 l 88 557 l 94 602 l 405 602 l 399 557 l 393 557 q 342 557 330 545 q 324 541 322 533 q 319 525 308 482 l 211 120 q 199 74 199 68 q 199 53 212 49 q 224 45 265 45 l 283 45 z"},"H":{"x_min":0,"x_max":725,"ha":725,"o":"m 465 283 l 252 283 l 208 120 q 197 80 197 68 q 197 53 209 49 q 222 45 262 45 l 272 45 l 265 0 l -34 0 l -28 45 l -25 45 q 18 45 32 52 q 45 59 52 85 q 52 88 56 100 q 59 113 61 120 l 158 482 q 169 522 169 534 q 169 548 157 552 q 144 557 103 557 l 88 557 l 94 602 l 407 602 l 401 557 l 391 557 q 339 557 328 545 q 322 541 319 533 q 317 525 305 482 l 265 334 l 478 334 l 518 482 q 529 522 529 534 q 529 548 517 552 q 504 557 463 557 l 454 557 l 461 602 l 760 602 l 754 557 l 751 557 q 699 557 687 545 q 682 541 679 533 q 677 525 665 482 l 568 120 q 557 77 557 68 q 557 53 569 49 q 582 45 622 45 l 641 45 l 635 0 l 319 0 l 325 45 l 335 45 q 387 45 398 57 q 404 62 407 70 q 410 78 421 120 z"},"4":{"x_min":0,"x_max":478,"ha":478,"o":"m 363 207 l 447 207 l 432 151 l 348 151 l 341 120 q 330 80 328 72 q 327 63 329 57 q 337 45 386 45 l 395 45 l 383 0 l 99 0 l 111 45 l 120 45 q 174 45 187 57 q 192 62 196 71 q 199 80 210 120 l 218 151 l -8 151 l 9 212 l 414 590 l 472 590 q 442 498 432 463 z m 232 207 l 288 415 l 68 207 z"},"~":{"x_min":0,"x_max":505,"ha":505,"o":"m 86 141 l 28 185 q 103 279 173 279 q 198 279 243 260 l 283 244 q 318 228 333 228 q 348 228 362 238 q 377 247 401 272 l 459 228 q 382 133 314 133 q 287 133 244 152 l 204 168 q 168 184 153 184 q 139 184 125 175 q 110 166 86 141 z"},"D":{"x_min":0,"x_max":694,"ha":694,"o":"m -41 0 l -35 45 l -32 45 q 20 45 32 57 q 38 62 40 70 q 43 78 55 120 l 152 482 q 162 522 162 534 q 162 548 150 552 q 138 557 97 557 l 82 557 l 88 602 l 386 602 q 454 602 497 591 q 539 581 576 555 q 663 494 663 364 q 663 282 630 208 q 597 133 538 83 q 483 38 415 19 q 346 0 238 0 z m 234 45 l 258 45 q 368 45 429 135 q 463 186 486 266 q 508 347 508 418 q 508 486 477 521 q 445 557 384 557 l 366 557 q 338 557 325 546 q 313 536 304 504 l 198 106 q 190 72 190 68 q 190 55 200 50 q 210 45 234 45 z"},"^":{"x_min":0,"x_max":505,"ha":505,"o":"m 468 265 l 369 265 l 316 473 l 149 265 l 50 265 l 314 602 l 385 602 z"},"0":{"x_min":0,"x_max":478,"ha":478,"o":"m 333 590 q 418 590 458 518 q 505 428 468 285 q 433 158 349 73 q 264 -12 172 -12 q 110 -12 70 28 q 31 68 22 134 q 14 201 36 289 q 71 419 155 505 q 239 590 333 590 z m 321 547 q 277 547 248 496 q 238 474 217 413 q 196 352 179 289 q 159 216 148 155 q 137 94 139 73 q 143 32 182 32 q 226 32 254 82 q 265 104 285 164 q 306 224 322 288 q 369 461 363 505 q 362 525 351 536 q 339 547 321 547 z"},"F":{"x_min":0,"x_max":587,"ha":587,"o":"m 605 602 l 572 398 l 528 398 q 528 472 511 503 q 486 557 397 557 l 367 557 q 341 557 331 549 q 321 541 314 517 l 265 334 l 282 334 q 337 334 368 357 q 400 380 421 436 l 465 430 l 390 151 l 346 158 q 350 188 350 208 q 350 289 272 289 l 253 289 l 208 120 q 197 78 197 68 q 197 53 209 49 q 222 45 262 45 l 285 45 l 278 0 l -34 0 l -28 45 l -25 45 q 18 45 32 52 q 45 59 52 85 l 61 120 l 158 482 q 169 524 169 534 q 169 548 157 552 q 144 557 103 557 l 88 557 l 94 602 z"},"`":{"x_min":0,"x_max":278,"ha":278,"o":"m 265 454 l 212 454 l 108 527 q 83 544 90 570 q 95 588 112 600 q 129 612 149 612 q 170 612 185 597 q 189 593 202 569 z"},"k":{"x_min":0,"x_max":540,"ha":540,"o":"m 309 613 l 218 309 q 267 360 304 380 q 341 399 386 399 q 429 399 457 377 q 484 354 484 318 q 484 258 408 215 q 376 197 322 179 q 351 163 361 143 q 371 122 375 70 q 377 54 388 54 q 419 54 451 132 l 487 112 q 455 47 419 17 q 383 -12 336 -12 q 295 -12 273 11 q 251 34 251 78 q 251 97 255 123 q 258 139 258 151 q 258 158 254 165 q 248 164 237 164 q 207 164 207 188 q 207 200 215 207 q 223 214 237 214 q 250 214 275 203 q 370 235 370 292 q 370 309 359 320 q 348 330 331 330 q 288 330 233 263 q 190 212 158 102 l 127 0 l -4 0 l 138 482 q 152 528 152 537 q 152 552 142 558 q 132 562 100 562 l 81 562 l 86 602 z"},"u":{"x_min":0,"x_max":571,"ha":571,"o":"m 498 387 l 420 127 q 407 80 407 71 q 407 67 410 63 q 414 59 418 59 q 429 59 452 84 q 475 109 501 150 l 532 127 q 483 52 443 20 q 403 -12 356 -12 q 275 -12 275 59 q 275 72 276 81 q 235 32 199 10 q 163 -12 123 -12 q 82 -12 57 13 q 32 38 32 79 q 32 108 49 165 l 78 266 q 92 309 92 322 q 92 338 82 342 q 72 348 41 348 l 32 348 l 38 387 l 249 398 l 174 145 q 173 142 172 137 q 170 132 168 124 q 166 116 164 111 q 159 93 158 91 q 157 81 157 79 q 157 71 163 65 q 169 58 178 58 q 193 58 220 80 q 247 101 269 132 q 305 182 326 249 l 366 387 z"},"]":{"x_min":0,"x_max":324,"ha":324,"o":"m -62 -90 l -51 -48 l 59 -48 l 222 560 l 112 560 l 123 602 l 336 602 l 151 -90 z"},"U":{"x_min":0,"x_max":694,"ha":694,"o":"m 79 557 l 85 602 l 398 602 l 392 557 l 382 557 q 330 557 318 545 q 312 540 310 532 q 307 524 296 482 l 228 228 q 216 182 216 155 q 216 100 249 70 q 282 39 341 39 q 408 39 453 88 q 474 109 487 135 q 499 162 512 212 l 568 422 q 587 491 587 511 q 587 557 512 557 l 518 602 l 746 602 l 740 557 q 702 558 675 534 q 658 518 650 502 q 643 486 624 422 l 562 189 q 534 84 474 36 q 413 -12 309 -12 q 222 -12 167 16 q 126 38 100 79 q 73 120 73 163 q 73 198 88 252 l 149 482 q 161 527 161 534 q 161 548 148 552 q 135 557 94 557 z"},"o":{"x_min":0,"x_max":478,"ha":478,"o":"m 270 399 q 352 399 403 354 q 450 314 450 238 q 450 132 373 60 q 297 -12 183 -12 q 103 -12 58 31 q 35 52 22 85 q 8 119 8 156 q 8 255 86 327 q 164 399 270 399 z m 267 360 q 213 360 175 268 q 159 229 148 178 q 138 128 138 90 q 138 59 152 42 q 166 24 191 24 q 245 24 279 112 q 297 155 309 209 q 321 262 321 295 q 321 324 306 342 q 291 360 267 360 z"},"N":{"x_min":0,"x_max":710,"ha":710,"o":"m 292 602 l 515 179 l 580 421 q 598 491 598 511 q 598 557 523 557 l 529 602 l 760 602 l 754 557 q 712 557 687 534 q 669 517 662 502 q 655 487 636 421 l 520 -12 l 453 -12 l 207 460 l 132 181 q 114 111 114 91 q 114 45 187 45 l 196 45 l 189 0 l -48 0 l -42 45 q 1 47 26 68 q 43 83 50 99 q 57 115 76 181 l 170 530 q 156 557 121 557 l 74 557 l 80 602 z"},"+":{"x_min":0,"x_max":505,"ha":505,"o":"m 184 162 l 22 162 l 48 258 l 210 258 l 253 421 l 349 421 l 306 258 l 468 258 l 442 162 l 280 162 l 237 0 l 141 0 z"},"G":{"x_min":0,"x_max":679,"ha":679,"o":"m 646 596 l 598 360 l 556 366 q 555 428 537 480 q 505 569 415 569 q 316 569 248 442 q 220 390 202 320 q 185 249 185 191 q 185 127 207 86 q 220 62 246 46 q 272 31 302 31 q 342 31 373 57 q 405 82 420 127 q 440 187 440 212 q 440 227 428 231 q 417 235 376 235 l 352 235 l 358 280 l 668 280 l 662 235 l 654 235 q 611 235 598 228 q 584 221 578 195 q 578 191 575 184 q 573 177 572 171 q 570 165 568 160 l 522 -12 l 482 -12 l 467 68 q 400 -12 289 -12 q 199 -12 124 37 q 79 67 54 120 q 28 172 28 237 q 28 337 80 424 q 131 512 218 563 q 304 614 404 614 q 456 614 490 599 q 524 584 558 548 l 608 596 z"},"q":{"x_min":0,"x_max":525,"ha":525,"o":"m 489 398 l 355 -54 q 342 -98 342 -108 q 342 -129 389 -129 l 402 -129 l 397 -168 l 136 -168 l 142 -129 l 145 -129 q 187 -129 200 -118 q 207 -111 224 -54 l 252 38 q 198 -12 138 -12 q 76 -12 38 30 q 0 72 0 142 q 0 242 73 320 q 146 398 239 398 q 321 398 354 335 l 428 398 z m 262 352 q 229 352 202 318 q 176 281 156 218 q 136 156 136 108 q 136 81 150 63 q 164 46 186 46 q 229 46 265 114 q 284 152 299 207 q 313 262 313 297 q 313 321 299 337 q 284 352 262 352 z"},"d":{"x_min":0,"x_max":556,"ha":556,"o":"m 552 613 l 403 110 q 395 78 395 71 q 395 66 399 62 q 402 58 407 58 q 418 58 444 85 q 470 113 494 152 l 527 131 q 504 92 472 55 q 412 -12 352 -12 q 318 -12 300 5 q 281 22 280 53 l 280 59 q 246 20 216 4 q 186 -12 145 -12 q 82 -12 41 30 q 0 72 0 139 q 0 240 73 319 q 146 398 238 398 q 312 398 342 347 l 382 482 q 395 523 395 537 q 395 552 385 558 q 375 562 344 562 l 318 562 l 323 602 z m 266 352 q 215 352 178 273 q 137 188 137 112 q 137 82 150 64 q 163 47 187 47 q 237 47 274 128 q 317 220 317 292 q 317 319 302 336 q 288 352 266 352 z"},"1":{"x_min":0,"x_max":478,"ha":478,"o":"m 403 590 l 278 120 q 267 80 265 72 q 263 63 266 58 q 272 45 330 45 l 357 45 l 345 0 l 12 0 l 24 45 l 51 45 q 110 45 123 58 q 129 62 132 71 q 136 80 147 120 l 226 416 q 230 432 232 439 q 234 446 235 456 q 236 466 236 469 q 236 472 232 476 q 228 481 225 482 q 222 482 212 484 q 202 486 195 486 q 188 486 170 486 l 135 486 l 148 532 q 222 533 275 547 q 328 561 374 590 z"},"5":{"x_min":0,"x_max":478,"ha":478,"o":"m 191 459 l 149 352 q 195 370 222 377 q 248 383 278 383 q 368 383 412 330 q 457 277 435 195 q 410 103 331 46 q 252 -12 149 -12 q 63 -12 21 26 q -21 63 -4 126 q 7 164 35 188 q 62 211 99 211 q 131 211 145 192 q 160 173 152 142 q 146 122 132 108 q 118 94 91 82 q 79 77 78 71 q 74 58 94 47 q 113 36 142 36 q 192 36 228 75 q 265 115 285 191 q 322 327 228 327 q 173 327 127 295 q 126 285 125 282 q 121 268 108 258 q 95 248 82 248 q 68 248 62 257 q 56 266 59 279 q 62 289 68 296 q 73 303 91 317 q 166 535 183 590 q 247 576 342 576 q 444 576 496 588 q 504 590 510 590 q 517 590 514 581 q 510 568 497 547 q 483 527 467 511 q 400 447 292 447 q 246 447 191 459 z"}}}
